<?xml version="1.0" encoding="utf-8"?>
<!-- Generator: Adobe Illustrator 16.0.0, SVG Export Plug-In . SVG Version: 6.00 Build 0)  -->
<!DOCTYPE svg PUBLIC "-//W3C//DTD SVG 1.1//EN" "http://www.w3.org/Graphics/SVG/1.1/DTD/svg11.dtd">
<svg version="1.1" xmlns="http://www.w3.org/2000/svg" xmlns:xlink="http://www.w3.org/1999/xlink" x="0px" y="0px" width="1400px"
	 height="980px" viewBox="0 0 1400 980" enable-background="new 0 0 1400 980" xml:space="preserve">
<g id="BACKGROUND">
	<g>
		<rect x="-12" y="-15" fill="#FFEDED" width="1424" height="1010"/>
	</g>
</g>
<g id="OBJECTS">
	<path fill="#E0D1D1" d="M1196,875c0,12.149-9.85,22-22,22H242c-12.151,0-22-9.851-22-22l0,0c0-12.149,9.849-22,22-22h932
		C1186.15,853,1196,862.851,1196,875L1196,875z"/>
	<g>
		<path fill="#FFBC39" d="M871.656,702.742c3.901,0,7.064-3.163,7.064-7.064s-3.163-7.064-7.064-7.064h-186.56
			c-0.572-2.819-0.874-5.737-0.874-8.726V552.641h231.09c20.143,0,36.531-16.389,36.531-36.531v-14.791
			c0-3.901-3.164-7.065-7.065-7.065s-7.064,3.164-7.064,7.065v14.791c0,12.353-10.049,22.401-22.401,22.401h-231.09V311.683
			c0-37.344,30.273-67.617,67.617-67.617h78.307c29.138,0,53.372,20.929,58.53,48.57h-36.749c-17.005,0-30.839,13.834-30.839,30.838
			v11.264h-57.877c-12.883,0-23.363-10.48-23.363-23.363s10.48-23.363,23.363-23.363h33.194c3.901,0,7.064-3.163,7.064-7.064
			c0-3.902-3.163-7.065-7.064-7.065h-33.194c-20.673,0-37.492,16.819-37.492,37.493s16.819,37.492,37.492,37.492h57.877v27.363
			c0,3.901,3.163,7.065,7.064,7.065s7.064-3.164,7.064-7.065v-52.756c0-9.213,7.496-16.709,16.71-16.709h37.778
			c0.001,0,0.002,0,0.003,0h36.944c23.557,0,42.653,19.097,42.653,42.653v29.275h-87.7c-14.996,0-27.196,12.201-27.196,27.196
			c0,7.206-5.861,13.067-13.066,13.067h-55.08c-12.375,0-22.441-10.067-22.441-22.441v-20.285c0-3.901-3.164-7.064-7.065-7.064
			s-7.064,3.163-7.064,7.064v20.285c0,20.166,16.405,36.571,36.571,36.571h4.922v29.356c0,3.901,3.163,7.064,7.064,7.064
			s7.064-3.163,7.064-7.064v-29.356h36.029c14.996,0,27.195-12.2,27.195-27.196c0-7.205,5.861-13.067,13.067-13.067h87.7v0l0,0
			c27.592-0.042,49.982,22.313,49.982,49.905v19.564l0,0H871.794c-15.71,0-28.491,12.781-28.491,28.491
			c0,5.643-4.591,10.235-10.234,10.235h-91.745c-5.644,0-10.234-4.592-10.234-10.235v-21.427c0-3.901-3.164-7.064-7.065-7.064
			s-7.064,3.163-7.064,7.064v21.427c0,13.434,10.93,24.364,24.364,24.364h91.745c13.435,0,24.364-10.93,24.364-24.364
			c0-7.919,6.443-14.362,14.361-14.362h147.495h0.001h18.231c23.664,0,43.278,17.312,46.886,39.959h-78.076
			c-3.901,0-7.064,3.164-7.064,7.065s3.163,7.064,7.064,7.064h78.461c-2.245,24.137-22.548,43.033-47.271,43.033h-31.188
			c-0.001,0-0.002,0-0.003,0h-166.57c-17.952,0-32.556,14.604-32.556,32.557v17.537c0,3.901,3.163,7.064,7.064,7.064
			s7.064-3.163,7.064-7.064v-17.537c0-10.161,8.267-18.428,18.427-18.428h166.57v18.147H858.93c-3.901,0-7.064,3.163-7.064,7.064
			s3.163,7.064,7.064,7.064h147.237c-1.703,18.106-16.939,32.276-35.491,32.276h-34.69l0,0H800.722
			c-12.366,0-22.428-10.062-22.428-22.428v-49.189c0-3.901-3.163-7.064-7.064-7.064s-7.064,3.163-7.064,7.064v49.189
			c0,20.158,16.399,36.557,36.557,36.557h135.264v13.532c0,24.104-19.54,43.644-43.644,43.644H727.866
			c-15.723,0-29.499-8.317-37.181-20.789H871.656z"/>
		<g>
			<path fill="#61BDB2" d="M684.223,515.142c8.292-10.117,19.14-21.785,32.736-33.458v-12.326c0-3.901,3.163-7.064,7.064-7.064
				c3.902,0,7.065,3.163,7.065,7.064v1.001c16.662-12.445,36.612-24.29,60.097-33.563v-3.71h-4.922
				c-20.166,0-36.571-16.405-36.571-36.571v-20.285c0-3.901,3.163-7.064,7.065-7.064c3.901,0,7.064,3.163,7.064,7.064v20.285
				c0,12.375,10.067,22.441,22.441,22.441h55.08c7.205,0,13.066-5.861,13.066-13.067c0-14.996,12.2-27.196,27.196-27.196h87.7
				v-29.275c0-23.557-19.096-42.653-42.653-42.653h-36.944c-0.001,0-0.002,0-0.003,0h-37.778c-9.214,0-16.71,7.496-16.71,16.709
				v52.756c0,3.901-3.163,7.065-7.064,7.065s-7.064-3.164-7.064-7.065v-27.363h-57.877c-20.673,0-37.492-16.819-37.492-37.492
				s16.819-37.493,37.492-37.493h33.194c3.901,0,7.064,3.163,7.064,7.065c0,3.901-3.163,7.064-7.064,7.064h-33.194
				c-12.883,0-23.363,10.48-23.363,23.363s10.48,23.363,23.363,23.363h57.877v-11.264c0-17.004,13.834-30.838,30.839-30.838h36.749
				c-5.158-27.642-29.393-48.57-58.529-48.57H751.84c-37.344,0-67.617,30.273-67.617,67.617V515.142z"/>
			<path fill="#61BDB2" d="M884.5,392.823c-7.206,0-13.067,5.862-13.067,13.067c0,4.884-1.312,9.459-3.574,13.426
				c7.979-0.762,16.206-1.237,24.716-1.349c34.824-0.458,62.214-10.117,83.777-24.964c-1.37-0.111-2.752-0.181-4.151-0.179l0,0v0
				H884.5z"/>
		</g>
		<path fill="#FE3F4E" d="M940.75,559.961c-159.383-21.852-227.553,21-256.527,58.109v61.817c0,2.988,0.302,5.906,0.875,8.726
			h186.559c3.901,0,7.064,3.163,7.064,7.064s-3.163,7.064-7.064,7.064H690.685c7.682,12.472,21.458,20.789,37.182,20.789h164.475
			c24.104,0,43.644-19.54,43.644-43.644v-13.532H800.722c-20.157,0-36.557-16.398-36.557-36.557v-49.189
			c0-3.901,3.163-7.064,7.064-7.064s7.064,3.163,7.064,7.064v49.189c0,12.366,10.062,22.428,22.428,22.428h135.264l0,0h34.69
			c18.552,0,33.789-14.17,35.491-32.276H858.93c-3.901,0-7.064-3.163-7.064-7.064s3.163-7.064,7.064-7.064h147.401v-18.147h-166.57
			c-10.16,0-18.427,8.267-18.427,18.428v17.537c0,3.901-3.163,7.064-7.064,7.064s-7.064-3.163-7.064-7.064v-17.537
			c0-17.952,14.604-32.557,32.556-32.557h166.57c0.001,0,0.002,0,0.003,0h31.188c22.619,0,41.527-15.82,46.304-36.996
			C1056.243,558.311,1011.524,569.663,940.75,559.961z"/>
	</g>
	<g>
		<g>
			<path fill="#849996" d="M483.776,702.742c-3.902,0-7.065-3.163-7.065-7.064s3.163-7.064,7.065-7.064h186.56
				c0.572-2.819,0.874-5.737,0.874-8.726V552.641H440.121c-20.143,0-36.531-16.389-36.531-36.531v-14.791
				c0-3.901,3.163-7.065,7.064-7.065s7.065,3.164,7.065,7.065v14.791c0,12.353,10.049,22.401,22.402,22.401H671.21V311.683
				c0-37.344-30.273-67.617-67.617-67.617h-78.307c-29.137,0-53.372,20.929-58.53,48.57h36.749
				c17.005,0,30.839,13.834,30.839,30.838v11.264h57.877c12.882,0,23.363-10.48,23.363-23.363s-10.48-23.363-23.363-23.363h-33.194
				c-3.901,0-7.065-3.163-7.065-7.064c0-3.902,3.164-7.065,7.065-7.065h33.194c20.673,0,37.492,16.819,37.492,37.493
				s-16.819,37.492-37.492,37.492h-57.877v27.363c0,3.901-3.163,7.065-7.064,7.065s-7.065-3.164-7.065-7.065v-52.756
				c0-9.213-7.496-16.709-16.709-16.709h-37.778c0,0-0.001,0-0.002,0h-36.945c-23.557,0-42.653,19.097-42.653,42.653v29.275h87.7
				c14.996,0,27.196,12.201,27.196,27.196c0,7.206,5.862,13.067,13.066,13.067h55.08c12.375,0,22.441-10.067,22.441-22.441v-20.285
				c0-3.901,3.164-7.064,7.065-7.064s7.065,3.163,7.065,7.064v20.285c0,20.166-16.406,36.571-36.571,36.571h-4.921v29.356
				c0,3.901-3.164,7.064-7.065,7.064s-7.064-3.163-7.064-7.064v-29.356h-36.029c-14.996,0-27.196-12.2-27.196-27.196
				c0-7.205-5.861-13.067-13.067-13.067h-87.7v0h0c-27.592-0.042-49.982,22.313-49.982,49.905v19.564l0,0h147.495
				c15.71,0,28.491,12.781,28.491,28.491c0,5.643,4.591,10.235,10.235,10.235h91.745c5.644,0,10.235-4.592,10.235-10.235v-21.427
				c0-3.901,3.163-7.064,7.064-7.064c3.902,0,7.065,3.163,7.065,7.064v21.427c0,13.434-10.93,24.364-24.364,24.364h-91.745
				c-13.435,0-24.364-10.93-24.364-24.364c0-7.919-6.443-14.362-14.362-14.362H336.144h-0.001h-18.231
				c-23.664,0-43.278,17.312-46.886,39.959h78.076c3.901,0,7.064,3.164,7.064,7.065s-3.163,7.064-7.064,7.064H270.64
				c2.246,24.137,22.548,43.033,47.271,43.033h31.188c0.001,0,0.002,0,0.002,0h166.571c17.952,0,32.556,14.604,32.556,32.557v17.537
				c0,3.901-3.163,7.064-7.064,7.064s-7.065-3.163-7.065-7.064v-17.537c0-10.161-8.266-18.428-18.426-18.428h-166.57v18.147h147.401
				c3.901,0,7.065,3.163,7.065,7.064s-3.164,7.064-7.065,7.064H349.266c1.703,18.106,16.939,32.276,35.491,32.276h34.69l0,0h135.264
				c12.366,0,22.427-10.062,22.427-22.428v-49.189c0-3.901,3.164-7.064,7.065-7.064s7.064,3.163,7.064,7.064v49.189
				c0,20.158-16.399,36.557-36.557,36.557H419.447v13.532c0,24.104,19.54,43.644,43.644,43.644h164.475
				c15.723,0,29.5-8.317,37.182-20.789H483.776z"/>
			<g>
				<g>
					<polygon fill="#849996" points="220.626,689.64 199.358,668.37 203.931,663.797 218.777,678.643 230.377,654.764 
						270.64,654.764 270.64,661.231 234.426,661.231 					"/>
				</g>
			</g>
			<g>
				<g>
					<path fill="#849996" d="M422.148,257.938c-1.134-1.218-1.7-2.96-1.7-5.227v-11.021c0-2.268,0.566-4.009,1.7-5.227
						c1.134-1.217,2.792-1.827,4.975-1.827c2.183,0,3.842,0.61,4.975,1.827c1.134,1.218,1.701,2.959,1.701,5.227v11.021
						c0,2.267-0.567,4.009-1.701,5.227c-1.133,1.218-2.792,1.826-4.975,1.826C424.94,259.764,423.282,259.156,422.148,257.938z
						 M429.392,253.025v-11.65c0-1.847-0.757-2.771-2.268-2.771s-2.267,0.925-2.267,2.771v11.65c0,1.849,0.755,2.771,2.267,2.771
						S429.392,254.874,429.392,253.025z M443.12,235.266h4.408l-17.067,44.084h-4.408L443.12,235.266z M441.482,278.154
						c-1.133-1.217-1.7-2.96-1.7-5.228v-11.021c0-2.268,0.567-4.01,1.7-5.228c1.134-1.217,2.792-1.826,4.975-1.826
						c2.184,0,3.842,0.609,4.976,1.826c1.134,1.218,1.701,2.96,1.701,5.228v11.021c0,2.268-0.567,4.01-1.701,5.228
						c-1.133,1.217-2.792,1.827-4.976,1.827C444.274,279.98,442.616,279.371,441.482,278.154z M448.726,273.241v-11.65
						c0-1.848-0.756-2.771-2.268-2.771c-1.511,0-2.267,0.924-2.267,2.771v11.65c0,1.849,0.755,2.771,2.267,2.771
						C447.97,276.013,448.726,275.09,448.726,273.241z"/>
				</g>
			</g>
			<g>
				<g>
					<path fill="#849996" d="M198.65,470.916h-11.472v-6.678h11.472V452.68h6.678v11.558H216.8v6.678h-11.472v11.728h-6.678V470.916
						z"/>
				</g>
			</g>
			<g>
				<g>
					<path fill="#849996" d="M320.557,366.59l-8.111-8.112l4.722-4.722l8.112,8.112l8.172-8.172l4.722,4.722L330,366.59l8.112,8.112
						l-4.722,4.722l-8.112-8.112l-8.293,8.292l-4.722-4.722L320.557,366.59z"/>
				</g>
			</g>
			<g>
				<g>
					<path fill="#849996" d="M544.032,190.37h18.834v8.561h-18.834V190.37z"/>
				</g>
			</g>
		</g>
	</g>
	<g>
		<g>
			<path fill="#352122" d="M391.814,764.389l3.417,90.719h-23.973l-21.212-70.74l-7.531,3.542l-12.165,67.198h-20.275
				c0,0-17.849-64.113-9.269-100.902L391.814,764.389z"/>
			<path fill="#87837E" d="M388.224,658.908c0,0,37.92,11.001,46.976,29.062c0,0-4.261,23.088-6.857,24.527
				c-26.065,14.455-49.8-12.818-55.886-30.73C366.37,663.854,388.224,658.908,388.224,658.908z"/>
			<path fill="#87837E" d="M391.62,660.119c0,0,1.239,17.585,8.648,33.938c7.408,16.354,6.887,55.82-6.922,64.45
				c0,0,18.987,18.988-39.701,18.988c-55.919,0-63.567-6.21-64.204-21.146c0,0-5.538-73.843,31.023-97.61
				C320.464,658.74,367.454,642.857,391.62,660.119z"/>
			<path fill="#87837E" d="M322.476,657.563l-17.293,2.105c-9.558,1.163-18.357,5.692-24.968,12.692
				c-7.439,7.878-21.656,25.618-30.788,27.618c-16.946,3.712-21.061,59.884,25.052,50.953s10.32-30.745,10.32-30.745
				s8.822-30.509,21.455-34.724C318.885,681.249,330.734,676.634,322.476,657.563z"/>
			<g>
				<path fill="#474747" d="M309.329,743.357l-0.946,7.183l-5.502-4.714l-15.072-39.349c-0.94-2.453-0.258-4.995,1.522-5.677l0,0
					c1.781-0.683,3.986,0.754,4.925,3.207L309.329,743.357z"/>
				<path fill="#333333" d="M302.665,745.263c1.707-1.029,2.487-3.159,1.749-5.085l-2.293-5.987
					c-0.737-1.926-2.741-2.99-4.698-2.615L302.665,745.263z"/>
				
					<rect x="289.759" y="708.96" transform="matrix(-0.9338 0.3577 -0.3577 -0.9338 821.3208 1269.9487)" fill="#333333" width="6.905" height="3.946"/>
				<polygon fill="#333333" points="308.383,750.54 309.261,743.865 303.271,746.16 				"/>
			</g>
			<path fill="#E9AFA1" d="M273.906,726.301c0,0,4.247-11.12,11.165-16.801c5.482-4.502,22.744,0.677,22.744,21.39
				c0,0,0,17.262-15.821,17.551C278.541,748.687,273.906,726.301,273.906,726.301z"/>
			<g>
				<path fill="#FB3F4D" d="M436.554,877.796c0,0,3.186-17.861-13.807-18.634s-24.131-1.834-25.244-8.014c0,0-19.651-6.951-28.534,0
					v26.647H436.554z"/>
				<path fill="#F9F9F9" d="M434.566,879.783h-67.584l1.987-6.622h67.771C436.893,875.816,434.566,879.783,434.566,879.783z"/>
				<path fill="#F9F9F9" d="M366.982,862.891c5.371,0.823,11.265,1.004,17.572-0.003c27.227-4.345,36.206,12.262,36.206,12.262
					s-7.821-12.841-26.937-5.89c-7.655,2.783-17.629,3.475-26.841,3.306V862.891z"/>
			</g>
			<g>
				<path fill="#FB3F4D" d="M373.411,877.796c0,0,3.186-17.861-13.806-18.634c-16.993-0.772-24.131-1.834-25.245-8.014
					c0,0-19.651-6.951-28.533,0v26.647H373.411z"/>
				<path fill="#F9F9F9" d="M371.424,879.783h-67.584v-4.634h67.771C371.762,877.804,371.424,879.783,371.424,879.783z"/>
				<path fill="#F9F9F9" d="M305.827,860.903c5.371,0.823,11.265,1.003,17.572-0.003c27.227-4.345,36.206,12.261,36.206,12.261
					s-7.821-12.841-26.938-5.889c-7.654,2.783-17.629,3.475-26.84,3.306V860.903z"/>
			</g>
			<g>
				<path fill="#E09E90" d="M383.764,656.667c0-0.263-0.031-0.517-0.04-0.777c-13.843-5.483-31.536-4.101-44.692-1.724
					c-0.091,0.822-0.147,1.654-0.147,2.501c0,12.393,10.046,22.439,22.439,22.439S383.764,669.06,383.764,656.667z"/>
			</g>
			<path fill="#D8D8D8" d="M361.324,679.106l-1.726-5.179l-10.357-1.726C349.241,672.202,347.515,679.106,361.324,679.106z"/>
			<g>
				<path fill="#FFFFFF" d="M359.598,673.928c0,0-12.083,3.452-12.083,12.083c0,0-18.987-20.714-8.63-31.07
					C338.885,654.94,356.146,665.297,359.598,673.928z"/>
			</g>
			<path fill="#D8D8D8" d="M368.229,673.928l-0.854,4.347c0,0,7.759-2.62,9.485-6.072L368.229,673.928z"/>
			<path fill="#FFFFFF" d="M368.229,673.928c0,0,9.384,2.704,5.62,9.553c-0.442,0.805,20.271-18.184,9.915-28.54L368.229,673.928z"
				/>
			<g>
				<path fill="#E9AFA1" d="M426.768,506.379c0,0,17.884,15.647,20.745,59.687c0,0,54.366,89.464-81.55,96.26
					c0,0-122.325,7.356-105.872-92.179C276.544,470.612,381.7,467.035,426.768,506.379z"/>
				<path fill="#FFFFFF" d="M347.659,592.983c-61.57,24.937-68.316-34.695-36.125-50.075c32.19-15.38,48.602,14.308,48.602,14.308
					S368.517,584.535,347.659,592.983z"/>
				<path fill="#FFFFFF" d="M347.659,592.983c-61.57,24.937-68.316-34.695-36.125-50.075c32.19-15.38,48.602,14.308,48.602,14.308
					S368.517,584.535,347.659,592.983z"/>
				<path fill="#FFFFFF" d="M415.631,590.705c34.063-1.16,41.119-38.14,11.79-49.585c-29.329-11.445-44.352,15.022-44.352,15.022
					S375.46,592.073,415.631,590.705z"/>
				<ellipse fill="#4E2F1B" cx="339.555" cy="571.705" rx="22.27" ry="23.784"/>
				<ellipse fill="#4E2F1B" cx="422.409" cy="564.801" rx="22.27" ry="23.784"/>
				<path fill="#A93836" d="M348.919,607.398c0,0,20.745-12.377,58.301-3.506c0,0,3.935,33.551-29.329,32.835
					C344.627,636.013,348.919,607.398,348.919,607.398z"/>
				<path fill="#D44547" d="M348.765,611.773c0.322,8.043,4.062,24.415,29.125,24.954c10.021,0.216,16.649-2.688,21.042-6.838
					C384.532,604.711,358.141,609.207,348.765,611.773z"/>
				<path fill="#FFFFFF" d="M348.919,607.398c0,0-0.188,1.277-0.178,3.284c47.728,3.453,51.622-3.929,49.862-8.505
					C366.512,596.923,348.919,607.398,348.919,607.398z"/>
				<path fill="#4E2B31" d="M288.347,519.256c0,0,64.347,28.665,158.45,10.601c0,0-42.32-137.287-164.875-73.421
					c0,0-44.879,29.344-36.138,59.601c0,0-15.38-5.723-21.103-0.715c-5.723,5.007,12.519,13.45,12.519,13.45
					s-52.664,79.74,30.181,94.128C267.381,622.899,299.184,606.609,288.347,519.256z"/>
				<path fill="#E9AFA1" d="M283.766,586.598c1.534-8.524-0.725-17.292-6.188-24.014c-8.268-10.171-21.103-19.557-30.721,2.812
					c-15.38,35.768,5.053,62.604,28.458,68.143L283.766,586.598z"/>
				<path fill="#362223" d="M310.3,521.558c-2.932,0.317,46.071-11.745,41.98,6.396C349.957,538.255,340.993,518.241,310.3,521.558z
					"/>
				<path fill="#362223" d="M428.412,523.284c2.932,0.316-46.071-11.745-41.98,6.396
					C388.755,539.981,397.719,519.967,428.412,523.284z"/>
				<g>
					<g>
						<path fill="#F9F4F4" d="M326.802,527.48c21.74,0,39.427,17.688,39.427,39.428s-17.687,39.427-39.427,39.427
							s-39.427-17.687-39.427-39.427S305.062,527.48,326.802,527.48 M326.802,525.48c-22.879,0-41.427,18.548-41.427,41.428
							c0,22.879,18.548,41.427,41.427,41.427s41.427-18.548,41.427-41.427C368.229,544.028,349.681,525.48,326.802,525.48
							L326.802,525.48z"/>
					</g>
					<g>
						<path fill="#F9F4F4" d="M416.561,527.48c19.836,0,35.975,17.688,35.975,39.428s-16.138,39.427-35.975,39.427
							c-19.837,0-35.975-17.687-35.975-39.427S396.724,527.48,416.561,527.48 M416.561,525.48
							c-20.973,0-37.975,18.548-37.975,41.428c0,22.879,17.002,41.427,37.975,41.427c20.973,0,37.975-18.548,37.975-41.427
							C454.535,544.028,437.533,525.48,416.561,525.48L416.561,525.48z"/>
					</g>
					<path fill="none" stroke="#F9F4F4" stroke-width="2" stroke-miterlimit="10" d="M366.503,568.634c0,0,8.63-8.63,13.809,0"/>
				</g>
			</g>
		</g>
		<g enable-background="new    ">
			<path fill="#443E35" d="M481.982,616.609c0.275-0.143,0.627-0.244,0.933-0.137c-2.179-0.77-4.359-1.539-6.538-2.308
				c-1.344-0.475-3.48-1.862-4.829-0.84c1.774,0.627,3.549,1.253,5.323,1.879c1.133,0.4,2.266,0.801,3.399,1.2
				C480.989,616.658,481.332,616.948,481.982,616.609z"/>
			<path fill="#494238" d="M425.757,750.488c-1.82-0.644-0.813-5.005-0.557-6.293c0.16-0.799,0.24-0.672-0.414-0.902
				c-0.599-0.212-1.197-0.423-1.795-0.634c-2.557-0.902-5.113-1.805-7.67-2.708c-0.403,1.781-1.221,4.881-0.123,6.521
				c0.491,0.732,1.774,0.915,2.542,1.187C420.413,748.602,423.085,749.545,425.757,750.488z"/>
			<g>
				<polygon fill="#5D5447" points="452.371,638.718 442.342,635.178 471.548,613.325 481.577,616.865 				"/>
			</g>
			<g>
				<polygon fill="#50483E" points="425.351,743.492 415.322,739.951 436.269,647.639 446.298,651.18 				"/>
			</g>
			<path fill="#574E43" d="M446.553,650.14c0.567-2.17,1.339-4.296,2.307-6.319c0.846-1.77,1.891-3.891,3.511-5.103
				c-1.979-0.698-3.958-1.397-5.938-2.096c-1.159-0.409-2.318-0.818-3.478-1.228c-0.128-0.046-0.45-0.232-0.592-0.209
				c-0.43,0.07-1.043,0.982-1.311,1.328c-1.856,2.392-3.063,5.355-3.985,8.221c-0.206,0.64-1.038,2.567-0.608,2.973
				c0.21,0.197,0.771,0.271,1.042,0.367c0.623,0.22,1.245,0.439,1.867,0.659c2.31,0.815,4.619,1.631,6.928,2.446
				C446.376,650.831,446.462,650.484,446.553,650.14z"/>
			<g>
				<path fill="#4C453B" d="M481.577,616.865c2.158-1.614,2.937,1.35,1.742,6.614l-20.947,92.313
					c-1.195,5.265-3.909,10.834-6.068,12.449l-29.206,21.852c-2.158,1.615-2.942-1.337-1.748-6.602l20.947-92.312
					c1.194-5.266,3.915-10.848,6.073-12.462L481.577,616.865z"/>
			</g>
			<g>
				<path fill="#353029" d="M477.291,627.348c1.819-1.36,2.475,1.138,1.468,5.574l-17.65,77.786
					c-1.007,4.437-3.294,9.13-5.113,10.49l-24.61,18.414c-1.819,1.36-2.479-1.127-1.473-5.563l17.65-77.787
					c1.007-4.437,3.299-9.14,5.118-10.5L477.291,627.348z"/>
			</g>
		</g>
		<path fill="#E9AFA1" d="M479.188,674.688c0,0-12.08-2.179-14.711,5.848c-2.63,8.026,4.071,8.224-1.604,14.495
			c-5.675,6.271,7.943,13.399,11.443,11.595C477.816,704.821,491.537,695.245,479.188,674.688z"/>
	</g>
	<g>
		<rect x="786.084" y="856.229" fill="#0D4F48" width="193.188" height="14.813"/>
		<rect x="814.647" y="644.331" fill="#0D4F48" width="12.434" height="226.711"/>
		<rect x="945.566" y="644.331" fill="#0D4F48" width="12.433" height="226.711"/>
		<rect x="795.853" y="637.837" fill="#0D4F48" width="179.896" height="10.689"/>
		<g>
			<g>
				<polygon fill="#574199" points="859.594,695.098 869.17,695.098 820.181,477.499 810.656,477.733 				"/>
			</g>
		</g>
		<g>
			<polygon fill="#574199" points="931.435,695.098 941.012,695.098 892.021,477.499 882.498,477.733 			"/>
		</g>
		<polygon fill="#198B81" points="829.402,710.812 972.371,710.812 922.854,490.869 779.886,490.869 		"/>
		<polygon fill="#FFFFFF" points="834.386,710.812 977.354,710.812 927.837,490.869 784.868,490.869 		"/>
		<rect x="825.371" y="705.547" fill="#0D4F48" width="155.723" height="6.623"/>
		<path fill="#FFBD48" d="M841.2,597.018c-6.991-15.389-13.872-32.048-10.921-48.69c1.411-7.958,6.999-16.7,15.063-16.173
			c2.784,0.183,5.366,1.483,7.747,2.937c9.079,5.542,16.513,13.743,21.139,23.32c2.271-7.65,5.377-15.219,10.552-21.294
			c5.175-6.074,12.684-10.521,20.663-10.563c3.124-0.016,6.467,0.76,8.549,3.088c1.63,1.822,2.25,4.31,2.776,6.696
			c7.41,33.588,7.098,68.855-0.906,102.307c-2.76,11.536-6.523,23.119-13.007,33.147c-4.049,6.263-5.719,8.802-11.984,4.19
			c-4.851-3.569-9.047-9.482-12.778-14.154C862.509,642.312,851.477,619.639,841.2,597.018z"/>
		<path fill="#14867C" d="M909.123,566.295c3.738-5.837,7.042-11.951,9.89-18.27c-0.649-3.914-1.39-7.813-2.244-11.688
			c-0.526-2.387-1.146-4.874-2.776-6.696c-2.082-2.328-5.425-3.104-8.549-3.088c-7.979,0.042-15.488,4.489-20.663,10.563
			c-5.175,6.075-8.28,13.644-10.552,21.294c-4.626-9.577-12.06-17.778-21.139-23.32c-2.381-1.453-4.963-2.754-7.747-2.937
			c-8.064-0.527-13.652,8.215-15.063,16.173c-2.951,16.643,3.93,33.302,10.921,48.69c0.784,1.728,1.576,3.455,2.371,5.182
			c3.783-6.314,8.52-12.06,14.075-16.892c3.6-3.131,8.014-6.04,12.755-5.506c3.411,0.384,6.362,2.497,9.639,3.518
			c5.778,1.8,12.228,0.007,17.183-3.469C902.177,576.375,905.859,571.392,909.123,566.295z"/>
		<path fill="#FB3F4D" d="M913.878,623.47c-4.028,3.694-8.322,7.275-13.417,9.257c-5.094,1.98-11.172,2.14-15.776-0.805
			c-2.827-1.807-4.876-4.603-7.53-6.654c-5.2-4.018-12.458-4.797-18.76-2.933c-1.561,0.461-2.995,0.97-4.312,1.525
			c6.909,13.332,14.633,26.224,24.011,37.968c3.731,4.672,7.928,10.585,12.778,14.154c6.266,4.611,7.936,2.072,11.984-4.19
			c6.483-10.028,10.247-21.611,13.007-33.147c1.649-6.892,2.953-13.862,3.948-20.878C917.871,619.707,915.9,621.616,913.878,623.47z
			"/>
	</g>
	<g>
		<g>
			<path fill="#FFC9C2" d="M1112.249,636.837l15.903,3.749c8.947,3.604,19.035,3.038,27.523-1.546l30.129-17.558
				c0,0,5.498-1.357,7.355,21.35l-40.159,22.829c-6.806,3.656-14.885,4.094-22.045,1.193l-24.29-9.839L1112.249,636.837z"/>
			<path fill="#FA4451" d="M1110.851,634.808c1.638,0.272,23.243,6.641,29.884,6.641c0,0,6.789,19.385,0,33.205
				c0,0-31.544-11.622-34.864-18.263C1102.549,649.749,1100.889,633.146,1110.851,634.808z"/>
			<path fill="#FFC9C2" d="M1014.079,660.521l-10.463,25.104l-33.412,6.075c0,0-5.454,14.497-0.062,23.253l51.315-11.592
				l14.683-58.593l-8.985,3.268C1021.242,650.187,1016.5,654.714,1014.079,660.521z"/>
			<polygon fill="#FFC9C2" points="1025.173,798.372 1036.05,861.066 1056.441,857.984 1060.555,795.552 			"/>
			<polygon fill="#FFB749" points="1058.137,832.253 1056.441,857.984 1036.05,861.066 1031.322,833.814 			"/>
			<polygon fill="#F9F9F9" points="1057.688,839.062 1056.441,857.984 1036.05,861.066 1032.487,840.529 			"/>
			<g>
				<path fill="#FFB749" d="M1057.861,852.589c0,0-5.604-3.979-10.318,0.069s-3.246-1.54-8.268-1.729
					c-5.021-0.188-8.72,9.625-21.506,11.971s-6.547,15.606-6.547,15.606l46.812-0.315L1057.861,852.589z"/>
				<path fill="#E5E5E5" d="M1058.034,878.19l-46.812,0.315c0,0-1.97-4.188-1.427-8.273l48.183-0.325L1058.034,878.19z"/>
				<path fill="#F9F9F9" d="M1017.77,862.899c2.369-0.435,4.424-1.128,6.236-1.964c5.279,1.725,13.053,6.179,13.053,17.396
					l-25.836,0.174C1011.223,878.506,1004.983,865.245,1017.77,862.899z"/>
			</g>
			<polygon fill="#FFC9C2" points="1088.263,798.372 1099.14,861.066 1119.531,857.984 1123.644,795.552 			"/>
			<polygon fill="#FFB749" points="1121.227,832.253 1119.531,857.984 1099.14,861.066 1094.411,833.814 			"/>
			<polygon fill="#F9F9F9" points="1120.777,839.062 1119.531,857.984 1099.14,861.066 1095.576,840.529 			"/>
			<path fill="#64BCAE" d="M1011.962,734.23l-7.366,71.581c0,0,25.789,19.236,58.107,0l1.661-26.563l6.641,28.224
				c0,0,12.738,9.331,54.788-4.98c0,0,4.829-33.396,0-59.769C1125.793,742.723,1059.508,723.679,1011.962,734.23z"/>
			<path fill="#FA4451" d="M1027.112,647.774c0,0-9.235,66.725-20.856,94.948c0,0,59.139,36.766,120.826,1.959
				c0,0,7.629-51.883-18.312-112.456C1108.77,632.226,1055.994,633.351,1027.112,647.774z"/>
			<path fill="#E8A29A" d="M1091.186,645.604c0-3.392-1.295-6.513-3.457-9.044c-9.544,0.351-20.134,1.183-30.186,2.899
				c-0.959,1.881-1.501,3.956-1.501,6.145c0,8.411,7.867,15.229,17.571,15.229C1083.318,660.833,1091.186,654.015,1091.186,645.604z
				"/>
			<path fill="#FFC9C2" d="M991.729,495.907c0,0-103.265,177.556,110.692,145.61c0,0,88.406-9.658,53.489-117.38
				C1120.995,416.417,991.729,495.907,991.729,495.907z"/>
			<path fill="#362223" d="M996.294,437.239c12.199-7.422-64.251,43.513-19.898,92.714c0,0,7.426-31.64,27.301-40.573
				c0,0,1.405,43.043,109.127,44.102c0,0,0,16.438,20.801,18.405c0,0-13.061,42.915,6.687,43.564c0,0-7.777,19.005,12.827,15.077
				c0,0,105.538-120.436,14.161-136.764C1167.299,473.764,1095.908,385.771,996.294,437.239z"/>
			<path fill="#FFC9C2" d="M1134.723,589.06c-0.549-22.031,19.26-39.392,40.925-35.348c0.534,0.1,1.075,0.209,1.622,0.328
				c30.646,6.687-4.007,71.354-39.334,72.73C1137.936,626.771,1135.156,606.521,1134.723,589.06z"/>
			<path fill="#A73733" d="M1030.675,595.592c0,0,26.067,1.307,37.525-3.594c0,0,4.297,24.499-20.338,21.56
				C1023.227,610.617,1030.675,595.592,1030.675,595.592z"/>
			<path fill="#CE4646" d="M1042.47,612.604c1.604,0.387,3.382,0.714,5.393,0.954c15.021,1.792,19.279-6.613,20.32-13.45
				C1060.043,600.223,1045.637,601.978,1042.47,612.604z"/>
			<path fill="#FFFFFF" d="M1060.749,594.098c-9.591,1.799-21.959,1.728-27.353,1.588c0.601,2.322,2.22,4.5,6.25,4.413
				C1046.681,599.947,1055.68,599.577,1060.749,594.098z"/>
			<path fill="#261718" d="M1065.122,522.563c0,0,30.158-22.288,42.044-9.287C1119.053,526.277,1099.969,506.962,1065.122,522.563z"
				/>
			<path fill="#261718" d="M1026.288,520.246c0,0-25.044-18.507-34.915-7.711C981.503,523.331,997.351,507.291,1026.288,520.246z"/>
			<g>
				<path fill="#FFB749" d="M1120.951,852.589c0,0-5.605-3.979-10.319,0.069s-3.245-1.54-8.267-1.729
					c-5.021-0.188-8.721,9.625-21.507,11.971c-12.785,2.346-6.546,15.606-6.546,15.606l46.811-0.315L1120.951,852.589z"/>
				<path fill="#E5E5E5" d="M1121.123,878.19l-46.811,0.315c0,0-1.971-4.188-1.428-8.273l48.183-0.325L1121.123,878.19z"/>
				<path fill="#F9F9F9" d="M1080.858,862.899c2.37-0.435,4.425-1.128,6.236-1.964c5.279,1.725,13.054,6.179,13.053,17.396
					l-25.835,0.174C1074.312,878.506,1068.073,865.245,1080.858,862.899z"/>
			</g>
			<g>
				<path fill="#84604C" d="M1201.275,651.283L1201.275,651.283c-3.684-0.467-6.326-3.779-5.965-7.474l6.349-64.853l17.299,2.193
					l-10.041,64.385C1208.345,649.203,1204.959,651.75,1201.275,651.283z"/>
				<path fill="#54392B" d="M1200.71,588.65c2.509,1.309,5.463,2.252,8.688,2.661c2.815,0.356,5.527,0.258,8.007-0.196l1.554-9.965
					l-17.299-2.193L1200.71,588.65z"/>
				<path fill="#FFBD48" d="M1200.376,577.017c-0.515-1.521-0.626-3.149-0.599-4.755c0.045-2.537,0.436-5.093,1.42-7.431
					c1.486-3.532,4.229-6.376,6.105-9.718c1.876-3.341,2.752-7.784,0.444-10.843c3.142,0.203,6.025,1.904,8.316,4.063
					c5.62,5.295,8.123,13.34,7.837,21.056c-0.221,5.955-2.588,13.369-8.493,16.008
					C1209.605,587.991,1202.279,582.633,1200.376,577.017z"/>
				<path fill="#14867C" d="M1223.481,564.384c0.044-0.113,0.1-0.229,0.161-0.346c-0.783-5.928-3.255-11.63-7.579-15.704
					c-2.291-2.159-5.175-3.86-8.316-4.063c2.308,3.059,1.432,7.502-0.444,10.843c-0.435,0.773-0.918,1.519-1.418,2.254
					c0.735,2.924,0.927,5.983,0.545,8.975c2.161-2.656,3.813-5.724,4.843-8.988c2.585,2.55,2.875,6.556,3.009,10.185
					c1.231-2.789,2.062-5.754,2.459-8.776c2.129,3.254,3.752,6.838,4.791,10.585
					C1222.182,567.692,1222.831,566.038,1223.481,564.384z"/>
			</g>
			<path fill="#FFC9C2" d="M1212.878,606.606c0,0-8.779,5.994-3.887,12.701c0,0-5.476,12.214,0.875,14.157
				C1216.217,635.409,1225.838,620.991,1212.878,606.606z"/>
			<path fill="#FFFFFF" d="M1079.326,585.096c45.52,4.786,54.52-40.521,22.333-50.211c-32.187-9.689-43.197,20.313-43.197,20.313
				S1053.862,582.418,1079.326,585.096z"/>
			<path fill="#FFFFFF" d="M1015.935,582.035c-32.363,10.969-49.643-20.978-26.804-39.906s43.733,10.68,43.733,10.68
				S1033.393,576.118,1015.935,582.035z"/>
			
				<ellipse transform="matrix(0.9998 -0.0194 0.0194 0.9998 -10.7892 21.1664)" fill="#562E36" cx="1082.833" cy="565.29" rx="17.775" ry="20.306"/>
			
				<ellipse transform="matrix(0.9998 -0.0194 0.0194 0.9998 -10.7908 19.6254)" fill="#562E36" cx="1003.611" cy="564.599" rx="17.775" ry="20.306"/>
			<circle fill="#FFFFFF" cx="1100.821" cy="551.342" r="10.87"/>
			<circle fill="#FFFFFF" cx="1017.259" cy="553.519" r="10.87"/>
			<path fill="#FA4451" d="M1027.839,648.089c0,0-13.348-1.849-19.956,27.3c0,0,11.997,8.312,21.735,7.736
				c0.521-0.03,1.035-0.087,1.541-0.171C1041.121,681.294,1027.839,648.089,1027.839,648.089z"/>
			<path fill="#FFC9C2" d="M1193.16,642.832c0,0,10.457-5.053,7.904-20.151c0,0,7.678-8.067,2.299-13.187l-17.559,11.988
				L1193.16,642.832z"/>
		</g>
		<g>
			<g enable-background="new    ">
				<g enable-background="new    ">
					<defs>
						<path id="SVGID_1_" enable-background="new    " d="M908.954,656.774l8.656-6.415c-1.507,1.116-2.948,2.693-4.312,4.818
							l-8.656,6.415C906.006,659.468,907.447,657.891,908.954,656.774z"/>
					</defs>
					<clipPath id="SVGID_2_">
						<use xlink:href="#SVGID_1_"  overflow="visible"/>
					</clipPath>
					<g clip-path="url(#SVGID_2_)" enable-background="new    ">
						<path fill="#858585" d="M913.298,655.178l-8.656,6.415c1.364-2.125,2.806-3.702,4.312-4.818l8.656-6.415
							C916.104,651.476,914.662,653.053,913.298,655.178"/>
					</g>
				</g>
				<path fill="#636363" d="M992.718,745.004c3.736-2.098,7.112-4.961,10.547-7.506c0.465-0.345,0.93-0.689,1.396-1.034
					c-3.885,2.879-8.395,4.775-13.164,5.547c-4.664,0.754-9.468,0.357-14.044-0.743c-9.583-2.306-18.321-7.501-26.156-13.343
					c-8.19-6.106-15.919-13.012-22.536-20.811c-6.245-7.357-11.644-15.684-14.694-24.896c-2.627-7.936-3.723-16.829-1.444-24.993
					c0.193-0.692,0.411-1.379,0.677-2.048c-1.91,1.416-3.819,2.831-5.729,4.246c-0.9,0.667-1.9,1.285-2.738,2.03
					c-0.269,0.238-0.328,0.494-0.452,0.851c-0.335,0.97-0.6,1.966-0.816,2.969c-2.155,9.995,0.137,20.551,4.376,29.687
					c4.847,10.443,12.294,19.548,20.58,27.457c4.391,4.19,9.045,8.12,13.901,11.759c4.642,3.477,9.543,6.664,14.761,9.212
					c9.909,4.839,21.544,7.541,32.148,3.247C990.492,746.163,991.623,745.618,992.718,745.004z"/>
				<g>
					<path fill="#F4F4F4" d="M993.178,672.982c14.288,8.95,27.485,24.922,27.091,34.801c-0.588,14.701-18.671,52.084-61.808,25.063
						c-2.834-1.775-5.776-3.828-8.829-6.184c-49.519-38.218-36.993-69.821-36.334-71.485c6.811-10.608,15.528-7.547,24.704-1.8
						c2.188,1.371,4.402,2.895,6.622,4.422c2.227,1.532,4.459,3.068,6.678,4.459c6.32,3.958,12.531,6.73,18.175,4.85
						C976.083,664.911,984.815,667.743,993.178,672.982z"/>
				</g>
			</g>
			<g>
				<g>
					<path fill="#FF5764" d="M936.574,662.559c7.631,4.78,12.858,13.743,11.68,20.028c-1.179,6.28-8.317,7.503-15.947,2.723
						c-7.631-4.779-12.863-13.75-11.685-20.03C921.801,658.993,928.944,657.779,936.574,662.559z"/>
				</g>
			</g>
			<g>
				<g>
					<path fill="#FB3F4D" d="M957.38,700.389c7.64,4.776,13.177,13.237,12.376,18.909c-0.799,5.667-7.635,6.396-15.273,1.62
						c-7.635-4.773-13.172-13.238-12.372-18.905C942.911,696.341,949.745,695.615,957.38,700.389z"/>
				</g>
			</g>
			<g>
				<g>
					<path fill="#017465" d="M998.969,682.99c9.227,5.78,15.553,16.623,14.127,24.223c-1.424,7.594-10.062,9.069-19.289,3.29
						c-9.227-5.78-15.553-16.628-14.127-24.223C981.105,678.682,989.741,677.211,998.969,682.99z"/>
				</g>
			</g>
			<g>
				<g>
					<path fill="#FFBD48" d="M963.119,677.022c4.272,2.677,7.204,7.7,6.544,11.22c-0.66,3.519-4.662,4.199-8.935,1.522
						c-4.273-2.677-7.2-7.697-6.54-11.216C954.849,675.029,958.846,674.346,963.119,677.022z"/>
				</g>
			</g>
			<g>
				<g>
					<g>
						<path fill="#4F2A31" d="M979.717,701.427c4.273,2.677,7.205,7.701,6.545,11.22s-4.662,4.199-8.936,1.522
							c-4.272-2.676-7.199-7.697-6.539-11.216S975.444,698.751,979.717,701.427z"/>
					</g>
				</g>
			</g>
		</g>
	</g>
</g>
</svg>
